<svg width="44" height="50" viewBox="0 0 44 50" fill="none" xmlns="http://www.w3.org/2000/svg">
<path d="M42 12.5H33.5V11.5C33.5 5.15 28.35 0 22 0C15.65 0 10.5 5.15 10.5 11.5V12.5H2C0.89375 12.5 0 13.3937 0 14.5V48C0 49.1063 0.89375 50 2 50H42C43.1063 50 44 49.1063 44 48V14.5C44 13.3937 43.1063 12.5 42 12.5ZM15 11.5C15 7.63125 18.1312 4.5 22 4.5C25.8688 4.5 29 7.63125 29 11.5V12.5H15V11.5ZM39.5 45.5H4.5V17H10.5V22.5C10.5 22.775 10.725 23 11 23H14.5C14.775 23 15 22.775 15 22.5V17H29V22.5C29 22.775 29.225 23 29.5 23H33C33.275 23 33.5 22.775 33.5 22.5V17H39.5V45.5Z" fill="#1A1A1A"/>
</svg>
