<svg width="45" height="48" viewBox="0 0 45 48" fill="none" xmlns="http://www.w3.org/2000/svg">
<path d="M43.2346 39.1719C42.1058 36.4774 40.4676 34.03 38.4115 31.9658C36.3615 29.8957 33.9332 28.2453 31.2606 27.1055C31.2366 27.0935 31.2127 27.0874 31.1888 27.0754C34.9168 24.3618 37.3403 19.9417 37.3403 14.9548C37.3403 6.69347 30.6981 0 22.5 0C14.3019 0 7.65967 6.69347 7.65967 14.9548C7.65967 19.9417 10.0832 24.3618 13.8112 27.0814C13.7873 27.0935 13.7634 27.0995 13.7394 27.1116C11.0586 28.2513 8.65302 29.8854 6.58854 31.9719C4.53429 34.0376 2.89643 36.4846 1.76543 39.1779C0.654334 41.8146 0.0550943 44.6415 0.000149636 47.5055C-0.00144752 47.5699 0.00975469 47.6339 0.0330965 47.6938C0.0564384 47.7538 0.0914474 47.8084 0.136061 47.8545C0.180674 47.9006 0.233989 47.9372 0.292864 47.9622C0.351739 47.9872 0.414984 48 0.47887 48H4.06927C4.33257 48 4.54201 47.7889 4.54799 47.5296C4.66767 42.8744 6.52271 38.5146 9.80195 35.2101C13.1949 31.791 17.7008 29.9095 22.5 29.9095C27.2992 29.9095 31.8051 31.791 35.1981 35.2101C38.4773 38.5146 40.3323 42.8744 40.452 47.5296C40.458 47.795 40.6674 48 40.9307 48H44.5211C44.585 48 44.6483 47.9872 44.7071 47.9622C44.766 47.9372 44.8193 47.9006 44.8639 47.8545C44.9086 47.8084 44.9436 47.7538 44.9669 47.6938C44.9902 47.6339 45.0014 47.5699 44.9999 47.5055C44.94 44.6231 44.3476 41.8191 43.2346 39.1719ZM22.5 25.3266C19.7533 25.3266 17.1683 24.2472 15.2235 22.2874C13.2787 20.3276 12.2075 17.7226 12.2075 14.9548C12.2075 12.1869 13.2787 9.58191 15.2235 7.62211C17.1683 5.66231 19.7533 4.58291 22.5 4.58291C25.2467 4.58291 27.8317 5.66231 29.7765 7.62211C31.7213 9.58191 32.7925 12.1869 32.7925 14.9548C32.7925 17.7226 31.7213 20.3276 29.7765 22.2874C27.8317 24.2472 25.2467 25.3266 22.5 25.3266Z" fill="#1A1A1A"/>
</svg>
